# xmcd
#
# Track frame offsets:
# 183
# 80483
# 163258
# 211233
#
# Disc length: 3984 seconds
#
# Revision: 0
# Processed by: cddbd v1.4PL0 Copyright (c) Steve Scherf et al.
# Submitted via: Audion 3.0.2 (http://www.panic.com/audion/)
#
DISCID=2e0f8e04
DTITLE=Furtwängler/Vienna Philharmonic - Bruckner/ Symphonies 4 and 8 [CD 1)
DYEAR=1900
DGENRE=
TTITLE0=Symphony 4 (E-flat), rec.1951- 1. Bewegt
TTITLE1=2. Andante quasi Allegretto
TTITLE2=3. Scherzo. Trio
TTITLE3=4. Finale
EXTD=
EXTT0=
EXTT1=
EXTT2=
EXTT3=
PLAYORDER=
